<svg width="52" height="53" viewBox="0 0 52 53" fill="none" xmlns="http://www.w3.org/2000/svg">
<path d="M14.6251 29.8125C13.0182 29.8125 11.4473 30.2982 10.1111 31.2081C8.77497 32.1181 7.73357 33.4115 7.1186 34.9247C6.50364 36.4379 6.34274 38.1029 6.65624 39.7093C6.96975 41.3158 7.74358 42.7913 8.87988 43.9495C10.0162 45.1076 11.4639 45.8963 13.04 46.2159C14.6161 46.5354 16.2498 46.3714 17.7344 45.7446C19.2191 45.1178 20.488 44.0564 21.3808 42.6946C22.2736 41.3327 22.7501 39.7316 22.7501 38.0938C22.7501 37.0062 22.54 35.9294 22.1316 34.9247C21.7233 33.9199 21.1248 33.007 20.3704 32.238C19.6159 31.469 18.7202 30.859 17.7344 30.4429C16.7487 30.0267 15.6921 29.8125 14.6251 29.8125ZM14.6251 41.4062C13.9823 41.4062 13.354 41.212 12.8195 40.848C12.2851 40.484 11.8685 39.9667 11.6225 39.3614C11.3765 38.7561 11.3122 38.0901 11.4376 37.4475C11.563 36.805 11.8725 36.2147 12.327 35.7515C12.7815 35.2882 13.3606 34.9727 13.9911 34.8449C14.6215 34.7171 15.275 34.7827 15.8688 35.0334C16.4627 35.2841 16.9703 35.7087 17.3274 36.2534C17.6845 36.7982 17.8751 37.4386 17.8751 38.0938C17.8751 38.9723 17.5327 39.8148 16.9232 40.436C16.3137 41.0573 15.4871 41.4062 14.6251 41.4062ZM8.12513 26.5C7.47892 26.4971 6.85938 26.2371 6.39856 25.7754C6.17132 25.5446 5.99102 25.2703 5.86799 24.9683C5.74497 24.6664 5.68164 24.3426 5.68164 24.0156C5.68164 23.6886 5.74497 23.3649 5.86799 23.0629C5.99102 22.7609 6.17132 22.4867 6.39856 22.2559L8.7345 19.875L6.39856 17.4941C5.94065 17.0274 5.6834 16.3944 5.6834 15.7344C5.6834 15.0743 5.94065 14.4413 6.39856 13.9746C6.85648 13.5079 7.47754 13.2457 8.12513 13.2457C8.77271 13.2457 9.39377 13.5079 9.85169 13.9746L12.1876 16.3555L14.5236 13.9746C14.9815 13.5079 15.6025 13.2457 16.2501 13.2457C16.8977 13.2457 17.5188 13.5079 17.9767 13.9746C18.4346 14.4413 18.6919 15.0743 18.6919 15.7344C18.6919 16.3944 18.4346 17.0274 17.9767 17.4941L15.6408 19.875L17.9767 22.2559C18.2039 22.4867 18.3842 22.7609 18.5073 23.0629C18.6303 23.3649 18.6936 23.6886 18.6936 24.0156C18.6936 24.3426 18.6303 24.6664 18.5073 24.9683C18.3842 25.2703 18.2039 25.5446 17.9767 25.7754C17.5167 26.2381 16.8964 26.4976 16.2501 26.4976C15.6038 26.4976 14.9835 26.2381 14.5236 25.7754L12.1876 23.3945L9.85169 25.7754C9.39087 26.2371 8.77133 26.4971 8.12513 26.5ZM45.6017 42.1309C45.8289 42.3617 46.0092 42.6359 46.1323 42.9379C46.2553 43.2399 46.3186 43.5636 46.3186 43.8906C46.3186 44.2176 46.2553 44.5414 46.1323 44.8433C46.0092 45.1453 45.8289 45.4196 45.6017 45.6504C45.1417 46.1131 44.5214 46.3726 43.8751 46.3726C43.2288 46.3726 42.6085 46.1131 42.1486 45.6504L39.8126 43.2695L37.4767 45.6504C37.0167 46.1131 36.3964 46.3726 35.7501 46.3726C35.1038 46.3726 34.4835 46.1131 34.0236 45.6504C33.7963 45.4196 33.616 45.1453 33.493 44.8433C33.37 44.5414 33.3066 44.2176 33.3066 43.8906C33.3066 43.5636 33.37 43.2399 33.493 42.9379C33.616 42.6359 33.7963 42.3617 34.0236 42.1309L36.3595 39.75L34.0236 37.3691C33.5657 36.9024 33.3084 36.2694 33.3084 35.6094C33.3084 34.9493 33.5657 34.3163 34.0236 33.8496C34.4815 33.3829 35.1025 33.1207 35.7501 33.1207C36.3977 33.1207 37.0188 33.3829 37.4767 33.8496L39.8126 36.2305L42.1486 33.8496C42.6065 33.3829 43.2275 33.1207 43.8751 33.1207C44.5227 33.1207 45.1438 33.3829 45.6017 33.8496C46.0596 34.3163 46.3169 34.9493 46.3169 35.6094C46.3169 36.2694 46.0596 36.9024 45.6017 37.3691L43.2658 39.75L45.6017 42.1309ZM36.7861 22.9598C35.7298 27.7008 32.0533 31.9656 27.6251 33.5598C27.3652 33.6581 27.0899 33.7072 26.8126 33.7047C26.239 33.7028 25.6844 33.4948 25.2464 33.1173C24.8084 32.7398 24.5151 32.2169 24.4181 31.6407C24.321 31.0645 24.4264 30.4718 24.7158 29.967C25.0052 29.4622 25.46 29.0776 26.0001 28.8809C28.8642 27.8457 31.3423 24.968 32.0329 21.8625C32.5204 19.6887 32.1142 17.5355 30.8751 15.5273V17.3906C30.8751 18.0495 30.6183 18.6814 30.1612 19.1473C29.7041 19.6133 29.0841 19.875 28.4376 19.875C27.7912 19.875 27.1712 19.6133 26.7141 19.1473C26.2569 18.6814 26.0001 18.0495 26.0001 17.3906V9.10938C26.0001 8.45048 26.2569 7.81857 26.7141 7.35266C27.1712 6.88675 27.7912 6.625 28.4376 6.625H36.5626C37.2091 6.625 37.8291 6.88675 38.2862 7.35266C38.7433 7.81857 39.0001 8.45048 39.0001 9.10938C39.0001 9.76827 38.7433 10.4002 38.2862 10.8661C37.8291 11.332 37.2091 11.5938 36.5626 11.5938H34.1251C36.7251 15.0305 37.6595 19.0055 36.7861 22.9598Z" fill="#1F1F1F"/>
</svg>
