<svg width="52" height="53" viewBox="0 0 52 53" fill="none" xmlns="http://www.w3.org/2000/svg">
<g clip-path="url(#clip0_649_658)">
<path d="M25.812 -0.0631789C25.7274 -0.0476117 25.6439 -0.0265038 25.562 1.34036e-05C25.1105 0.103163 24.708 0.362704 24.4232 0.734408C24.1384 1.10611 23.9888 1.56698 24 2.03847V4.20536C13.474 5.17771 5.08002 13.7331 4.12402 24.4615H2.00002C1.93739 24.4585 1.87465 24.4585 1.81202 24.4615C1.28159 24.487 0.782781 24.7261 0.425337 25.1263C0.0678926 25.5266 -0.118912 26.0552 -0.0939814 26.5958C-0.0690511 27.1365 0.165572 27.6448 0.558273 28.0092C0.950974 28.3735 1.46959 28.5639 2.00002 28.5385H4.12602C5.08002 39.2669 13.474 47.8223 24 48.7967V50.9616C24 51.5022 24.2107 52.0207 24.5858 52.403C24.9609 52.7852 25.4696 53 26 53C26.5305 53 27.0392 52.7852 27.4142 52.403C27.7893 52.0207 28 51.5022 28 50.9616V48.7947C38.526 47.8223 46.92 39.2669 47.876 28.5385H50C50.5305 28.5385 51.0392 28.3237 51.4142 27.9414C51.7893 27.5591 52 27.0406 52 26.5C52 25.9594 51.7893 25.4409 51.4142 25.0586C51.0392 24.6763 50.5305 24.4615 50 24.4615H47.874C46.92 13.7331 38.528 5.17771 28 4.20332V2.03847C28.0101 1.7486 27.9594 1.45987 27.8513 1.19157C27.7431 0.923267 27.5801 0.681576 27.373 0.482643C27.1659 0.283711 26.9195 0.132117 26.6503 0.0379907C26.3811 -0.0561355 26.0953 -0.0906269 25.812 -0.0631789ZM24 10.3187V12.2308C24 12.7714 24.2107 13.2899 24.5858 13.6722C24.9609 14.0545 25.4696 14.2692 26 14.2692C26.5305 14.2692 27.0392 14.0545 27.4142 13.6722C27.7893 13.2899 28 12.7714 28 12.2308V10.3187C31.5272 10.7664 34.807 12.4003 37.3203 14.962C39.8337 17.5237 41.4368 20.8666 41.876 24.4615H40C39.9374 24.4585 39.8747 24.4585 39.812 24.4615C39.2816 24.487 38.7828 24.7261 38.4253 25.1263C38.0679 25.5266 37.8811 26.0552 37.906 26.5958C37.9309 27.1365 38.1656 27.6448 38.5583 28.0092C38.951 28.3735 39.4696 28.5639 40 28.5385H41.876C41.4368 32.1334 39.8337 35.4764 37.3203 38.038C34.807 40.5997 31.5272 42.2337 28 42.6813V40.7692C28.0074 40.4595 27.9454 40.1521 27.8188 39.8704C27.6921 39.5887 27.5041 39.3401 27.2691 39.1436C27.034 38.9471 26.7581 38.8078 26.4623 38.7362C26.1665 38.6647 25.8586 38.6628 25.562 38.7308C25.1105 38.8339 24.708 39.0935 24.4232 39.4652C24.1384 39.8369 23.9888 40.2977 24 40.7692V42.6813C20.4729 42.2337 17.193 40.5997 14.6797 38.038C12.1664 35.4764 10.5632 32.1334 10.124 28.5385H12C12.5305 28.5385 13.0392 28.3237 13.4142 27.9414C13.7893 27.5591 14 27.0406 14 26.5C14 25.9594 13.7893 25.4409 13.4142 25.0586C13.0392 24.6763 12.5305 24.4615 12 24.4615H10.124C10.5632 20.8666 12.1664 17.5237 14.6797 14.962C17.193 12.4003 20.4729 10.7664 24 10.3187Z" fill="#1F1F1F"/>
</g>
<defs>
<clipPath id="clip0_649_658">
<rect width="52" height="53" fill="white"/>
</clipPath>
</defs>
</svg>
